<svg width="22" height="20" viewBox="0 0 22 20" fill="none" xmlns="http://www.w3.org/2000/svg">
<g clip-path="url(#clip0_75_96)">
<path d="M6.63929 0.691406L6.28571 1.25H1.57143C0.702232 1.25 0 1.80859 0 2.5C0 3.19141 0.702232 3.75 1.57143 3.75H20.4286C21.2978 3.75 22 3.19141 22 2.5C22 1.80859 21.2978 1.25 20.4286 1.25H15.7143L15.3607 0.691406C15.0955 0.265625 14.5504 0 13.9563 0H8.04375C7.44955 0 6.90446 0.265625 6.63929 0.691406ZM20.4286 5H1.57143L2.6125 18.2422C2.69107 19.2305 3.72232 20 4.96473 20H17.0353C18.2777 20 19.3089 19.2305 19.3875 18.2422L20.4286 5Z" fill="white"/>
</g>
<defs>
<clipPath id="clip0_75_96">
<rect width="22" height="20" fill="white"/>
</clipPath>
</defs>
</svg>
