<svg width="22" height="20" viewBox="0 0 22 20" fill="none" xmlns="http://www.w3.org/2000/svg">
<g clip-path="url(#clip0_75_94)">
<path d="M17.6301 9.02344L18.1156 8.58203L16.659 7.25781L13.9906 4.83203L12.534 3.50781L12.0484 3.94922L11.0773 4.83203L2.51796 12.6133C2.07108 13.0195 1.74452 13.5234 1.56405 14.0742L0.0429556 18.7773C-0.0644662 19.1055 0.0343619 19.4609 0.305065 19.7031C0.575768 19.9453 0.962487 20.0352 1.32342 19.9414L6.49257 18.5586C7.09842 18.3945 7.65272 18.0977 8.0996 17.6914L16.659 9.91016L17.6301 9.02344ZM6.87499 15.6016L6.48397 16.4883C6.3121 16.6094 6.11874 16.6992 5.91249 16.7578L2.55233 17.6562L3.54061 14.6055C3.60077 14.4141 3.70389 14.2383 3.8371 14.0859L4.81249 13.7305V14.9805C4.81249 15.3242 5.12186 15.6055 5.49999 15.6055H6.87499V15.6016ZM15.5848 0.730469L14.966 1.29688L13.9949 2.17969L13.5051 2.62109L14.9617 3.94531L17.6301 6.37109L19.0867 7.69531L19.5723 7.25391L20.5433 6.37109L21.1664 5.80469C22.2406 4.82813 22.2406 3.24609 21.1664 2.26953L19.4777 0.730469C18.4035 -0.246094 16.6633 -0.246094 15.5891 0.730469H15.5848ZM13.548 7.29297L7.36053 12.918C7.09413 13.1602 6.65585 13.1602 6.38944 12.918C6.12303 12.6758 6.12303 12.2773 6.38944 12.0352L12.5769 6.41016C12.8433 6.16797 13.2816 6.16797 13.548 6.41016C13.8144 6.65234 13.8144 7.05078 13.548 7.29297Z" fill="white"/>
</g>
<defs>
<clipPath id="clip0_75_94">
<rect width="22" height="20" fill="white"/>
</clipPath>
</defs>
</svg>
