<svg width="22" height="20" viewBox="0 0 22 20" fill="none" xmlns="http://www.w3.org/2000/svg">
<g clip-path="url(#clip0_75_92)">
<path d="M17.875 8.125C17.875 9.91797 17.2348 11.5742 16.1562 12.918L21.5961 17.8672C22.1332 18.3555 22.1332 19.1484 21.5961 19.6367C21.059 20.125 20.1867 20.125 19.6496 19.6367L14.2098 14.6875C12.7316 15.6719 10.9098 16.25 8.9375 16.25C4.00039 16.25 0 12.6133 0 8.125C0 3.63672 4.00039 0 8.9375 0C13.8746 0 17.875 3.63672 17.875 8.125ZM8.9375 13.75C9.75005 13.75 10.5547 13.6045 11.3054 13.3218C12.0561 13.0391 12.7382 12.6248 13.3127 12.1025C13.8873 11.5801 14.3431 10.9601 14.654 10.2776C14.965 9.59514 15.125 8.86369 15.125 8.125C15.125 7.38631 14.965 6.65486 14.654 5.97241C14.3431 5.28995 13.8873 4.66985 13.3127 4.14752C12.7382 3.62519 12.0561 3.21086 11.3054 2.92818C10.5547 2.64549 9.75005 2.5 8.9375 2.5C8.12495 2.5 7.32035 2.64549 6.56965 2.92818C5.81894 3.21086 5.13684 3.62519 4.56228 4.14752C3.98771 4.66985 3.53195 5.28995 3.221 5.97241C2.91004 6.65486 2.75 7.38631 2.75 8.125C2.75 8.86369 2.91004 9.59514 3.221 10.2776C3.53195 10.9601 3.98771 11.5801 4.56228 12.1025C5.13684 12.6248 5.81894 13.0391 6.56965 13.3218C7.32035 13.6045 8.12495 13.75 8.9375 13.75Z" fill="white"/>
</g>
<defs>
<clipPath id="clip0_75_92">
<rect width="22" height="20" fill="white"/>
</clipPath>
</defs>
</svg>
