<svg width="153" height="157" viewBox="0 0 153 157" fill="none" xmlns="http://www.w3.org/2000/svg">
<g filter="url(#filter0_d_150_9)">
<g filter="url(#filter1_i_150_9)">
<ellipse cx="76.4073" cy="74.5" rx="71.4073" ry="73.5" fill="#9D4EDD"/>
</g>
<path d="M76.4073 148.5C116.134 148.5 148.315 115.355 148.315 74.5C148.315 33.6446 116.134 0.5 76.4073 0.5C36.6805 0.5 4.5 33.6446 4.5 74.5C4.5 115.355 36.6805 148.5 76.4073 148.5Z" stroke="black"/>
<g filter="url(#filter2_i_150_9)">
<path fill-rule="evenodd" clip-rule="evenodd" d="M134.942 116.444C143.051 104.59 147.815 90.1194 147.815 74.4997C147.815 34.3153 116.285 1.73938 77.3915 1.73938C38.498 1.73938 6.96851 34.3153 6.96851 74.4997C6.96851 90.1194 11.7323 104.59 19.8406 116.444C32.5922 97.801 53.6159 85.6278 77.3915 85.6278C101.167 85.6278 122.191 97.801 134.942 116.444Z" fill="#D9D9D9"/>
</g>
<g filter="url(#filter3_d_150_9)">
<ellipse cx="77.3991" cy="48.3882" rx="30.7448" ry="29.9803" fill="#9D4EDD"/>
<path d="M107.644 48.3882C107.644 64.6579 94.1147 77.8685 77.3991 77.8685C60.6834 77.8685 47.1543 64.6579 47.1543 48.3882C47.1543 32.1185 60.6834 18.908 77.3991 18.908C94.1147 18.908 107.644 32.1185 107.644 48.3882Z" stroke="black"/>
</g>
</g>
<path d="M21.7017 77.3636H23.1108V85.0682C23.1108 85.8636 22.9233 86.5739 22.5483 87.1989C22.1771 87.8201 21.6525 88.3106 20.9744 88.6705C20.2964 89.0265 19.5009 89.2045 18.5881 89.2045C17.6752 89.2045 16.8797 89.0265 16.2017 88.6705C15.5237 88.3106 14.9972 87.8201 14.6222 87.1989C14.2509 86.5739 14.0653 85.8636 14.0653 85.0682V77.3636H15.4744V84.9545C15.4744 85.5227 15.5994 86.0284 15.8494 86.4716C16.0994 86.911 16.4555 87.2576 16.9176 87.5114C17.3835 87.7614 17.9403 87.8864 18.5881 87.8864C19.2358 87.8864 19.7926 87.7614 20.2585 87.5114C20.7244 87.2576 21.0805 86.911 21.3267 86.4716C21.5767 86.0284 21.7017 85.5227 21.7017 84.9545V77.3636ZM25.9247 89V77.3636H29.8565C30.7694 77.3636 31.5156 77.5284 32.0952 77.858C32.6785 78.1837 33.1103 78.625 33.3906 79.1818C33.6709 79.7386 33.8111 80.3598 33.8111 81.0455C33.8111 81.7311 33.6709 82.3542 33.3906 82.9148C33.1141 83.4754 32.6861 83.9223 32.1065 84.2557C31.527 84.5852 30.7846 84.75 29.8793 84.75H27.0611V83.5H29.8338C30.4588 83.5 30.9607 83.392 31.3395 83.1761C31.7183 82.9602 31.9929 82.6686 32.1634 82.3011C32.3376 81.9299 32.4247 81.5114 32.4247 81.0455C32.4247 80.5795 32.3376 80.1629 32.1634 79.7955C31.9929 79.428 31.7164 79.1402 31.3338 78.9318C30.9512 78.7197 30.4437 78.6136 29.8111 78.6136H27.3338V89H25.9247ZM36.081 89V77.3636H37.4901V87.75H42.8991V89H36.081ZM54.446 83.1818C54.446 84.4091 54.2244 85.4697 53.7812 86.3636C53.3381 87.2576 52.7301 87.947 51.9574 88.4318C51.1847 88.9167 50.3021 89.1591 49.3097 89.1591C48.3172 89.1591 47.4347 88.9167 46.6619 88.4318C45.8892 87.947 45.2813 87.2576 44.8381 86.3636C44.3949 85.4697 44.1733 84.4091 44.1733 83.1818C44.1733 81.9545 44.3949 80.8939 44.8381 80C45.2813 79.1061 45.8892 78.4167 46.6619 77.9318C47.4347 77.447 48.3172 77.2045 49.3097 77.2045C50.3021 77.2045 51.1847 77.447 51.9574 77.9318C52.7301 78.4167 53.3381 79.1061 53.7812 80C54.2244 80.8939 54.446 81.9545 54.446 83.1818ZM53.0824 83.1818C53.0824 82.1742 52.9138 81.3239 52.5767 80.6307C52.2434 79.9375 51.7907 79.4129 51.2188 79.0568C50.6506 78.7008 50.0142 78.5227 49.3097 78.5227C48.6051 78.5227 47.9669 78.7008 47.3949 79.0568C46.8267 79.4129 46.3741 79.9375 46.0369 80.6307C45.7036 81.3239 45.5369 82.1742 45.5369 83.1818C45.5369 84.1894 45.7036 85.0398 46.0369 85.733C46.3741 86.4261 46.8267 86.9508 47.3949 87.3068C47.9669 87.6629 48.6051 87.8409 49.3097 87.8409C50.0142 87.8409 50.6506 87.6629 51.2188 87.3068C51.7907 86.9508 52.2434 86.4261 52.5767 85.733C52.9138 85.0398 53.0824 84.1894 53.0824 83.1818ZM56.7457 89H55.2685L59.5412 77.3636H60.9957L65.2685 89H63.7912L60.3139 79.2045H60.223L56.7457 89ZM57.2912 84.4545H63.2457V85.7045H57.2912V84.4545ZM70.6719 89H67.081V77.3636H70.831C71.9598 77.3636 72.9257 77.5966 73.7287 78.0625C74.5317 78.5246 75.1473 79.1894 75.5753 80.0568C76.0033 80.9205 76.2173 81.9545 76.2173 83.1591C76.2173 84.3712 76.0014 85.4148 75.5696 86.2898C75.1378 87.161 74.509 87.8314 73.6832 88.3011C72.8575 88.767 71.8537 89 70.6719 89ZM68.4901 87.75H70.581C71.5431 87.75 72.3404 87.5644 72.973 87.1932C73.6056 86.822 74.0772 86.2936 74.3878 85.608C74.6984 84.9223 74.8537 84.1061 74.8537 83.1591C74.8537 82.2197 74.7003 81.411 74.3935 80.733C74.0866 80.0511 73.6283 79.5284 73.0185 79.1648C72.4086 78.7973 71.6491 78.6136 70.7401 78.6136H68.4901V87.75ZM83.081 89V77.3636H87.0128C87.9257 77.3636 88.6719 77.5284 89.2514 77.858C89.8348 78.1837 90.2666 78.625 90.5469 79.1818C90.8272 79.7386 90.9673 80.3598 90.9673 81.0455C90.9673 81.7311 90.8272 82.3542 90.5469 82.9148C90.2704 83.4754 89.8423 83.9223 89.2628 84.2557C88.6832 84.5852 87.9408 84.75 87.0355 84.75H84.2173V83.5H86.9901C87.6151 83.5 88.117 83.392 88.4957 83.1761C88.8745 82.9602 89.1491 82.6686 89.3196 82.3011C89.4938 81.9299 89.581 81.5114 89.581 81.0455C89.581 80.5795 89.4938 80.1629 89.3196 79.7955C89.1491 79.428 88.8726 79.1402 88.4901 78.9318C88.1075 78.7197 87.5999 78.6136 86.9673 78.6136H84.4901V89H83.081ZM93.2372 89V77.3636H94.6463V82.5455H100.851V77.3636H102.26V89H100.851V83.7955H94.6463V89H93.2372ZM114.899 83.1818C114.899 84.4091 114.678 85.4697 114.234 86.3636C113.791 87.2576 113.183 87.947 112.411 88.4318C111.638 88.9167 110.755 89.1591 109.763 89.1591C108.77 89.1591 107.888 88.9167 107.115 88.4318C106.342 87.947 105.734 87.2576 105.291 86.3636C104.848 85.4697 104.626 84.4091 104.626 83.1818C104.626 81.9545 104.848 80.8939 105.291 80C105.734 79.1061 106.342 78.4167 107.115 77.9318C107.888 77.447 108.77 77.2045 109.763 77.2045C110.755 77.2045 111.638 77.447 112.411 77.9318C113.183 78.4167 113.791 79.1061 114.234 80C114.678 80.8939 114.899 81.9545 114.899 83.1818ZM113.536 83.1818C113.536 82.1742 113.367 81.3239 113.03 80.6307C112.696 79.9375 112.244 79.4129 111.672 79.0568C111.104 78.7008 110.467 78.5227 109.763 78.5227C109.058 78.5227 108.42 78.7008 107.848 79.0568C107.28 79.4129 106.827 79.9375 106.49 80.6307C106.157 81.3239 105.99 82.1742 105.99 83.1818C105.99 84.1894 106.157 85.0398 106.49 85.733C106.827 86.4261 107.28 86.9508 107.848 87.3068C108.42 87.6629 109.058 87.8409 109.763 87.8409C110.467 87.8409 111.104 87.6629 111.672 87.3068C112.244 86.9508 112.696 86.4261 113.03 85.733C113.367 85.0398 113.536 84.1894 113.536 83.1818ZM116.148 78.6136V77.3636H124.875V78.6136H121.216V89H119.807V78.6136H116.148ZM136.384 83.1818C136.384 84.4091 136.162 85.4697 135.719 86.3636C135.276 87.2576 134.668 87.947 133.895 88.4318C133.122 88.9167 132.24 89.1591 131.247 89.1591C130.255 89.1591 129.372 88.9167 128.599 88.4318C127.827 87.947 127.219 87.2576 126.776 86.3636C126.332 85.4697 126.111 84.4091 126.111 83.1818C126.111 81.9545 126.332 80.8939 126.776 80C127.219 79.1061 127.827 78.4167 128.599 77.9318C129.372 77.447 130.255 77.2045 131.247 77.2045C132.24 77.2045 133.122 77.447 133.895 77.9318C134.668 78.4167 135.276 79.1061 135.719 80C136.162 80.8939 136.384 81.9545 136.384 83.1818ZM135.02 83.1818C135.02 82.1742 134.851 81.3239 134.514 80.6307C134.181 79.9375 133.728 79.4129 133.156 79.0568C132.588 78.7008 131.952 78.5227 131.247 78.5227C130.543 78.5227 129.904 78.7008 129.332 79.0568C128.764 79.4129 128.312 79.9375 127.974 80.6307C127.641 81.3239 127.474 82.1742 127.474 83.1818C127.474 84.1894 127.641 85.0398 127.974 85.733C128.312 86.4261 128.764 86.9508 129.332 87.3068C129.904 87.6629 130.543 87.8409 131.247 87.8409C131.952 87.8409 132.588 87.6629 133.156 87.3068C133.728 86.9508 134.181 86.4261 134.514 85.733C134.851 85.0398 135.02 84.1894 135.02 83.1818Z" fill="black"/>
<defs>
<filter id="filter0_d_150_9" x="0" y="0" width="152.815" height="157" filterUnits="userSpaceOnUse" color-interpolation-filters="sRGB">
<feFlood flood-opacity="0" result="BackgroundImageFix"/>
<feColorMatrix in="SourceAlpha" type="matrix" values="0 0 0 0 0 0 0 0 0 0 0 0 0 0 0 0 0 0 127 0" result="hardAlpha"/>
<feOffset dy="4"/>
<feGaussianBlur stdDeviation="2"/>
<feComposite in2="hardAlpha" operator="out"/>
<feColorMatrix type="matrix" values="0 0 0 0 0 0 0 0 0 0 0 0 0 0 0 0 0 0 0.25 0"/>
<feBlend mode="normal" in2="BackgroundImageFix" result="effect1_dropShadow_150_9"/>
<feBlend mode="normal" in="SourceGraphic" in2="effect1_dropShadow_150_9" result="shape"/>
</filter>
<filter id="filter1_i_150_9" x="4" y="0" width="144.815" height="153" filterUnits="userSpaceOnUse" color-interpolation-filters="sRGB">
<feFlood flood-opacity="0" result="BackgroundImageFix"/>
<feBlend mode="normal" in="SourceGraphic" in2="BackgroundImageFix" result="shape"/>
<feColorMatrix in="SourceAlpha" type="matrix" values="0 0 0 0 0 0 0 0 0 0 0 0 0 0 0 0 0 0 127 0" result="hardAlpha"/>
<feOffset dy="4"/>
<feGaussianBlur stdDeviation="2"/>
<feComposite in2="hardAlpha" operator="arithmetic" k2="-1" k3="1"/>
<feColorMatrix type="matrix" values="0 0 0 0 0 0 0 0 0 0 0 0 0 0 0 0 0 0 0.25 0"/>
<feBlend mode="normal" in2="shape" result="effect1_innerShadow_150_9"/>
</filter>
<filter id="filter2_i_150_9" x="6.96851" y="1.73938" width="140.846" height="118.705" filterUnits="userSpaceOnUse" color-interpolation-filters="sRGB">
<feFlood flood-opacity="0" result="BackgroundImageFix"/>
<feBlend mode="normal" in="SourceGraphic" in2="BackgroundImageFix" result="shape"/>
<feColorMatrix in="SourceAlpha" type="matrix" values="0 0 0 0 0 0 0 0 0 0 0 0 0 0 0 0 0 0 127 0" result="hardAlpha"/>
<feOffset dy="4"/>
<feGaussianBlur stdDeviation="2"/>
<feComposite in2="hardAlpha" operator="arithmetic" k2="-1" k3="1"/>
<feColorMatrix type="matrix" values="0 0 0 0 0 0 0 0 0 0 0 0 0 0 0 0 0 0 0.25 0"/>
<feBlend mode="normal" in2="shape" result="effect1_innerShadow_150_9"/>
</filter>
<filter id="filter3_d_150_9" x="42.6543" y="18.408" width="69.4896" height="67.9606" filterUnits="userSpaceOnUse" color-interpolation-filters="sRGB">
<feFlood flood-opacity="0" result="BackgroundImageFix"/>
<feColorMatrix in="SourceAlpha" type="matrix" values="0 0 0 0 0 0 0 0 0 0 0 0 0 0 0 0 0 0 127 0" result="hardAlpha"/>
<feOffset dy="4"/>
<feGaussianBlur stdDeviation="2"/>
<feComposite in2="hardAlpha" operator="out"/>
<feColorMatrix type="matrix" values="0 0 0 0 0 0 0 0 0 0 0 0 0 0 0 0 0 0 0.25 0"/>
<feBlend mode="normal" in2="BackgroundImageFix" result="effect1_dropShadow_150_9"/>
<feBlend mode="normal" in="SourceGraphic" in2="effect1_dropShadow_150_9" result="shape"/>
</filter>
</defs>
</svg>
